<?xml version="1.0" encoding="utf-8"?>
<!-- Generator: Adobe Illustrator 19.1.0, SVG Export Plug-In . SVG Version: 6.00 Build 0)  -->
<svg version="1.1" id="Layer_1" xmlns="http://www.w3.org/2000/svg" xmlns:xlink="http://www.w3.org/1999/xlink" x="0px" y="0px"
	 viewBox="-348 81 22 19" style="enable-background:new -348 81 22 19;" xml:space="preserve">
<style type="text/css">
	.st0{fill:none;enable-background:new    ;}
</style>
<path class="st0" d="z"/>
<polygon points="-347,93.9 -347,87 -342.1,87 -338.9,83.8 -337,83.8 -337,97 -339,97 -342,94 "/>
<g>
	<path d="M-333.9,96.7c-0.1,0-0.3,0-0.4-0.1c-0.4-0.2-0.5-0.7-0.2-1c3.5-5.7,0.1-10,0.1-10c-0.3-0.3-0.2-0.8,0.1-1.1
		c0.3-0.3,0.8-0.2,1.1,0.1c0,0.1,4.2,5.2,0.1,11.8C-333.4,96.6-333.7,96.7-333.9,96.7z"/>
</g>
<g>
	<path d="M-331,99.7c-0.2,0-0.4-0.1-0.5-0.2c-0.3-0.3-0.3-0.7-0.1-1.1c0.3-0.3,7.3-8.4,0-15.9c-0.3-0.3-0.3-0.8,0-1.1
		c0.3-0.3,0.8-0.3,1.1,0c8.2,8.5,0.1,17.9,0,18C-330.6,99.6-330.8,99.7-331,99.7z"/>
</g>
</svg>
