<?xml version="1.0" encoding="utf-8"?>
<!-- Generator: Adobe Illustrator 19.1.0, SVG Export Plug-In . SVG Version: 6.00 Build 0)  -->
<svg version="1.1" id="Layer_1" xmlns="http://www.w3.org/2000/svg" xmlns:xlink="http://www.w3.org/1999/xlink" x="0px" y="0px"
	 viewBox="-350 81 19 20" style="enable-background:new -350 81 19 20;" xml:space="preserve">
<style type="text/css">
	.st0{fill:none;enable-background:new    ;}
</style>
<path class="st0" d="z"/>
<path d="M-333.7,99.6l-15.8-15.8c-0.4-0.4-0.4-1.2,0-1.6l0.3-0.3c0.4-0.4,1.2-0.4,1.6,0l15.8,15.8c0.4,0.4,0.4,1.2,0,1.6l-0.3,0.3
	C-332.5,100.1-333.2,100.1-333.7,99.6z"/>
<path d="M-331.8,83.9l-15.8,15.8c-0.4,0.4-1.2,0.4-1.6,0l-0.3-0.3c-0.4-0.4-0.4-1.2,0-1.6l15.8-15.8c0.4-0.4,1.2-0.4,1.6,0l0.3,0.3
	C-331.4,82.7-331.4,83.4-331.8,83.9z"/>
</svg>
