<svg xmlns="http://www.w3.org/2000/svg" xmlns:xlink="http://www.w3.org/1999/xlink" preserveAspectRatio="xMidYMid" width="20" height="20" viewBox="0 0 20 20">
  <defs>
    <style>
      .cls-1 {
        fill: #fff;
        filter: url(#color-overlay-1);
        fill-rule: evenodd;
      }
    </style>

    <filter id="color-overlay-1" filterUnits="userSpaceOnUse">
      <feFlood/>
      <feComposite operator="in" in2="SourceGraphic"/>
      <feBlend in2="SourceGraphic" result="solidFill"/>
    </filter>
  </defs>
  <path d="M18.335,-0.000 L1.665,-0.000 C0.745,-0.000 -0.001,0.853 -0.001,1.907 L-0.001,14.313 C-0.001,15.366 1.080,16.000 2.000,16.000 L13.000,16.000 L17.000,20.000 L17.000,16.000 L18.000,16.000 C18.920,16.000 20.001,15.366 20.001,14.313 L20.001,1.907 C20.001,0.853 19.255,-0.000 18.335,-0.000 ZM4.331,9.200 C3.535,9.200 2.890,8.516 2.890,7.674 C2.890,6.831 3.535,6.148 4.331,6.148 C5.128,6.148 5.773,6.831 5.773,7.674 C5.773,8.516 5.128,9.200 4.331,9.200 ZM9.961,9.200 C9.165,9.200 8.520,8.516 8.520,7.674 C8.520,6.831 9.165,6.148 9.961,6.148 C10.757,6.148 11.403,6.831 11.403,7.674 C11.403,8.516 10.757,9.200 9.961,9.200 ZM15.727,9.200 C14.931,9.200 14.286,8.516 14.286,7.674 C14.286,6.831 14.931,6.148 15.727,6.148 C16.523,6.148 17.169,6.831 17.169,7.674 C17.169,8.516 16.523,9.200 15.727,9.200 Z" class="cls-1"/>
</svg>
