<svg xmlns="http://www.w3.org/2000/svg" xmlns:xlink="http://www.w3.org/1999/xlink" preserveAspectRatio="xMidYMid" width="21" height="21" viewBox="0 0 21 21">
  <defs>
    <style>
      .cls-1 {
        fill: #fff;
        filter: url(#color-overlay-1);
        fill-rule: evenodd;
      }
    </style>

    <filter id="color-overlay-1" filterUnits="userSpaceOnUse">
      <feFlood/>
      <feComposite operator="in" in2="SourceGraphic"/>
      <feBlend in2="SourceGraphic" result="solidFill"/>
    </filter>
  </defs>
  <path d="M20.429,7.178 L15.787,11.819 C15.055,12.552 13.867,12.552 13.135,11.819 L12.472,11.156 L13.798,9.830 L13.798,9.830 C14.164,10.196 14.758,10.196 15.124,9.830 L18.440,6.515 C18.806,6.148 18.806,5.555 18.440,5.188 L15.787,2.536 C15.421,2.170 14.827,2.170 14.461,2.536 L11.146,5.851 C10.780,6.218 10.780,6.811 11.146,7.178 L9.820,8.504 L9.157,7.841 C8.424,7.108 8.424,5.921 9.157,5.188 L13.798,0.547 C14.530,-0.185 15.718,-0.185 16.450,0.547 L20.429,4.525 C21.161,5.258 21.161,6.445 20.429,7.178 ZM7.167,13.809 C6.801,13.442 6.801,12.848 7.167,12.482 L12.472,7.178 C12.838,6.811 13.432,6.812 13.798,7.178 C14.164,7.544 14.164,8.138 13.798,8.504 L8.494,13.809 C8.127,14.175 7.534,14.175 7.167,13.809 ZM7.167,11.156 L7.167,11.156 C6.801,10.790 6.207,10.790 5.841,11.156 L2.526,14.471 C2.160,14.838 2.160,15.431 2.526,15.797 L5.178,18.450 C5.544,18.816 6.138,18.816 6.504,18.450 L9.820,15.135 C10.186,14.768 10.186,14.175 9.820,13.809 L9.820,13.809 L11.146,12.482 L11.809,13.145 C12.541,13.878 12.541,15.065 11.809,15.797 L7.167,20.439 C6.435,21.171 5.247,21.172 4.515,20.439 L0.537,16.461 C-0.196,15.728 -0.196,14.541 0.537,13.809 L5.178,9.167 C5.911,8.435 7.098,8.435 7.830,9.167 L8.493,9.830 L7.167,11.156 Z" class="cls-1"/>
</svg>
