<svg xmlns="http://www.w3.org/2000/svg" xmlns:xlink="http://www.w3.org/1999/xlink" preserveAspectRatio="xMidYMid" width="22" height="20" viewBox="0 0 22 20">
  <defs>
    <style>
      .cls-1 {
        fill: #ccc;
        filter: url(#color-overlay-1);
        fill-rule: evenodd;
      }
    </style>

    <filter id="color-overlay-1" filterUnits="userSpaceOnUse">
      <feFlood/>
      <feComposite operator="in" in2="SourceGraphic"/>
      <feBlend in2="SourceGraphic" result="solidFill"/>
    </filter>
  </defs>
  <path d="M21.999,9.884 C21.999,14.193 19.448,18.124 15.500,19.900 C15.359,19.963 15.210,19.994 15.065,19.994 C14.663,19.994 14.277,19.764 14.101,19.375 C13.860,18.846 14.096,18.222 14.629,17.984 C17.821,16.547 19.884,13.368 19.884,9.884 C19.884,7.517 18.955,5.314 17.336,3.675 L17.451,5.796 C17.483,6.375 17.036,6.871 16.452,6.903 C16.433,6.903 16.413,6.904 16.395,6.904 C15.836,6.904 15.369,6.470 15.339,5.909 L15.094,1.396 C15.064,0.820 15.504,0.326 16.084,0.289 L20.620,0.001 C21.196,-0.032 21.705,0.404 21.742,0.984 C21.780,1.564 21.337,2.064 20.754,2.101 L18.872,2.221 C20.861,4.245 21.999,6.965 21.999,9.884 ZM6.493,0.093 C2.545,1.869 -0.007,5.800 -0.007,10.108 C-0.007,13.027 1.132,15.748 3.121,17.772 L1.239,17.892 C0.655,17.929 0.214,18.429 0.251,19.009 C0.286,19.566 0.752,19.994 1.305,19.994 C1.328,19.994 1.351,19.993 1.374,19.992 L5.910,19.703 C6.488,19.666 6.930,19.173 6.898,18.597 L6.654,14.083 C6.623,13.504 6.132,13.069 5.541,13.090 C4.958,13.121 4.511,13.617 4.541,14.197 L4.656,16.318 C3.038,14.678 2.109,12.475 2.109,10.108 C2.109,6.624 4.172,3.445 7.365,2.009 C7.897,1.770 8.133,1.147 7.892,0.617 C7.652,0.087 7.023,-0.146 6.493,0.093 Z" class="cls-1"/>
</svg>
