<svg xmlns="http://www.w3.org/2000/svg" xmlns:xlink="http://www.w3.org/1999/xlink" preserveAspectRatio="xMidYMid" width="22" height="20" viewBox="0 0 22 20">
  <defs>
    <style>
      .cls-1 {
        fill: #fff;
        filter: url(#color-overlay-1);
        fill-rule: evenodd;
      }
    </style>

    <filter id="color-overlay-1" filterUnits="userSpaceOnUse">
      <feFlood/>
      <feComposite operator="in" in2="SourceGraphic"/>
      <feBlend in2="SourceGraphic" result="solidFill"/>
    </filter>
  </defs>
  <path d="M19.727,12.606 L18.748,16.135 L18.720,16.142 L17.651,19.997 L10.740,18.208 L10.657,18.229 L3.381,16.346 L3.368,16.299 L1.432,15.798 L1.799,14.476 L1.823,14.482 L5.413,1.536 L5.389,1.530 L5.767,0.168 L18.484,3.460 L18.495,3.420 L21.997,4.327 L19.714,12.559 L19.727,12.606 ZM20.208,5.324 L6.810,1.856 L4.165,11.394 L17.563,14.863 L20.208,5.324 ZM8.204,8.121 L9.092,9.590 L11.403,7.488 L12.579,9.475 L15.689,6.825 L16.468,12.973 L6.193,10.312 L8.204,8.121 ZM8.868,6.676 C8.284,6.524 7.937,5.944 8.094,5.380 C8.250,4.815 8.851,4.480 9.435,4.632 C10.019,4.783 10.365,5.363 10.209,5.928 C10.052,6.492 9.452,6.827 8.868,6.676 ZM15.196,1.719 L14.888,1.799 L12.068,1.069 L16.229,-0.009 L16.872,2.313 L15.244,1.891 L15.196,1.719 ZM1.798,5.188 L2.721,8.517 L1.966,11.243 L0.010,4.190 L4.224,3.099 L3.788,4.673 L1.798,5.188 ZM4.356,19.861 L3.599,17.133 L9.247,18.595 L4.356,19.861 Z" class="cls-1"/>
</svg>
