<svg xmlns="http://www.w3.org/2000/svg" xmlns:xlink="http://www.w3.org/1999/xlink" preserveAspectRatio="xMidYMid" width="24" height="20.031" viewBox="0 0 24 20.031">
  <defs>
    <style>
      .cls-1 {
        fill: #bcbcbc;
        filter: url(#color-overlay-1);
        fill-rule: evenodd;
      }
    </style>

    <filter id="color-overlay-1" filterUnits="userSpaceOnUse">
      <feFlood/>
      <feComposite operator="in" in2="SourceGraphic"/>
      <feBlend in2="SourceGraphic" result="solidFill"/>
    </filter>
  </defs>
  <path d="M23.582,19.023 C22.845,20.083 21.379,20.350 20.313,19.614 L15.797,16.308 C15.114,15.839 14.760,15.074 14.786,14.306 C13.542,15.632 11.908,16.523 10.077,16.854 C7.829,17.262 5.558,16.774 3.684,15.485 C1.809,14.196 0.550,12.256 0.140,10.022 C-0.270,7.787 0.220,5.529 1.518,3.664 C4.199,-0.187 9.533,-1.153 13.409,1.512 C16.926,3.933 18.050,8.527 16.222,12.235 C16.936,11.936 17.783,11.994 18.471,12.467 L22.988,15.773 C24.055,16.509 24.322,17.963 23.582,19.023 ZM14.406,7.438 C14.121,5.880 13.244,4.528 11.937,3.629 C9.236,1.770 5.515,2.442 3.644,5.127 C1.775,7.815 2.452,11.513 5.153,13.369 C7.855,15.229 11.575,14.557 13.446,11.871 C14.351,10.571 14.692,8.996 14.406,7.438 Z" class="cls-1"/>
</svg>
