<svg xmlns="http://www.w3.org/2000/svg" xmlns:xlink="http://www.w3.org/1999/xlink" preserveAspectRatio="xMidYMid" width="20" height="20" viewBox="0 0 20 20">
  <defs>
    <style>
      .cls-1 {
        fill: #fff;
        filter: url(#color-overlay-1);
        fill-rule: evenodd;
      }
    </style>

    <filter id="color-overlay-1" filterUnits="userSpaceOnUse">
      <feFlood/>
      <feComposite operator="in" in2="SourceGraphic"/>
      <feBlend in2="SourceGraphic" result="solidFill"/>
    </filter>
  </defs>
  <path d="M16.667,7.143 C15.670,7.143 14.786,6.665 14.175,5.923 L6.513,8.982 C6.603,9.305 6.667,9.641 6.667,9.996 C6.667,10.209 6.641,10.415 6.608,10.618 L13.903,14.431 C14.502,13.482 15.516,12.858 16.667,12.858 C18.508,12.858 20.000,14.456 20.000,16.429 C20.000,18.401 18.508,20.000 16.667,20.000 C14.856,20.000 13.389,18.450 13.342,16.522 L5.688,12.521 C5.085,13.165 4.253,13.563 3.333,13.563 C1.492,13.563 -0.000,11.966 -0.000,9.996 C-0.000,8.026 1.492,6.428 3.333,6.428 C4.090,6.428 4.780,6.709 5.340,7.164 L13.370,3.957 C13.356,3.829 13.333,3.704 13.333,3.571 C13.333,1.600 14.826,0.000 16.667,0.000 C18.508,0.000 20.000,1.600 20.000,3.571 C20.000,5.544 18.508,7.143 16.667,7.143 Z" class="cls-1"/>
</svg>
